<svg width="500" height="200" viewBox="0 0 500 200" fill="none" xmlns="http://www.w3.org/2000/svg">
  <g clip-path="url(#clip0)">
    <path d="M173.125 26.466C173.423 26.1676 173.828 26 174.25 26C174.672 26 175.077 26.1676 175.375 26.466C175.673 26.7644 175.841 27.169 175.841 27.591C175.841 28.0129 175.673 28.4176 175.375 28.716L168.25 35.841L165.25 36.591L166 33.591L173.125 26.466Z" stroke="#2D9CDB" stroke-width="1.5" stroke-linecap="round" stroke-linejoin="round"/>
    <path d="M9.93745 9.00005H4.31245C3.58873 9.00005 3 8.41132 3 7.68745V4.31245C3 3.58873 3.58873 3 4.31245 3H9.93745C10.6613 3 11.25 3.58873 11.25 4.31245V7.68745C11.25 8.41132 10.6613 9.00005 9.93745 9.00005ZM4.31245 4.125C4.20905 4.125 4.125 4.20905 4.125 4.31245V7.68745C4.125 7.791 4.20905 7.87505 4.31245 7.87505H9.93745C10.041 7.87505 10.1251 7.791 10.1251 7.68745V4.31245C10.1251 4.20905 10.041 4.125 9.93745 4.125H4.31245Z" fill="#878787"/>
    <path d="M9.93745 21H4.31245C3.58873 21 3 20.4113 3 19.6875V11.8125C3 11.0887 3.58873 10.4999 4.31245 10.4999H9.93745C10.6613 10.4999 11.25 11.0887 11.25 11.8125V19.6875C11.25 20.4113 10.6613 21 9.93745 21ZM4.31245 11.6249C4.20905 11.6249 4.125 11.709 4.125 11.8125V19.6875C4.125 19.791 4.20905 19.875 4.31245 19.875H9.93745C10.041 19.875 10.1251 19.791 10.1251 19.6875V11.8125C10.1251 11.709 10.041 11.6249 9.93745 11.6249H4.31245Z" fill="#878787"/>
    <path d="M19.1877 21H13.5627C12.8388 21 12.2501 20.4113 12.2501 19.6875V16.3125C12.2501 15.5887 12.8388 15 13.5627 15H19.1877C19.9114 15 20.5001 15.5887 20.5001 16.3125V19.6875C20.5001 20.4113 19.9114 21 19.1877 21ZM13.5627 16.125C13.4591 16.125 13.3751 16.209 13.3751 16.3125V19.6875C13.3751 19.791 13.4591 19.875 13.5627 19.875H19.1877C19.2911 19.875 19.3751 19.791 19.3751 19.6875V16.3125C19.3751 16.209 19.2911 16.125 19.1877 16.125H13.5627Z" fill="#878787"/>
    <path d="M19.1877 13.5H13.5627C12.8388 13.5 12.2501 12.9113 12.2501 12.1875V4.31245C12.2501 3.58873 12.8388 3 13.5627 3H19.1877C19.9114 3 20.5001 3.58873 20.5001 4.31245V12.1875C20.5001 12.9113 19.9114 13.5 19.1877 13.5ZM13.5627 4.125C13.4591 4.125 13.3751 4.20905 13.3751 4.31245V12.1875C13.3751 12.291 13.4591 12.375 13.5627 12.375H19.1877C19.2911 12.375 19.3751 12.291 19.3751 12.1875V4.31245C19.3751 4.20905 19.2911 4.125 19.1877 4.125H13.5627Z" fill="#878787"/>
    <path d="M40.75 10.5C40.75 15.75 34 20.25 34 20.25C34 20.25 27.25 15.75 27.25 10.5C27.25 8.70979 27.9612 6.9929 29.227 5.72703C30.4929 4.46116 32.2098 3.75 34 3.75C35.7902 3.75 37.5071 4.46116 38.773 5.72703C40.0388 6.9929 40.75 8.70979 40.75 10.5Z" stroke="#878787" stroke-width="1.5" stroke-linecap="round" stroke-linejoin="round"/>
    <path d="M34 12.75C35.2426 12.75 36.25 11.7426 36.25 10.5C36.25 9.25736 35.2426 8.25 34 8.25C32.7574 8.25 31.75 9.25736 31.75 10.5C31.75 11.7426 32.7574 12.75 34 12.75Z" stroke="#878787" stroke-width="1.5" stroke-linecap="round" stroke-linejoin="round"/>
    <path d="M56 10.2773C57.6865 10.2773 59.0586 8.90527 59.0586 7.21875C59.0586 5.53223 57.6865 4.16016 56 4.16016C54.3135 4.16016 52.9414 5.53223 52.9414 7.21875C52.9414 8.90527 54.3135 10.2773 56 10.2773ZM56 5.21484C57.105 5.21484 58.0039 6.11379 58.0039 7.21875C58.0039 8.32371 57.105 9.22266 56 9.22266C54.895 9.22266 53.9961 8.32371 53.9961 7.21875C53.9961 6.11379 54.895 5.21484 56 5.21484Z" fill="#878787"/>
    <path d="M62.1875 10.2773C63.2537 10.2773 64.1211 9.40993 64.1211 8.34375C64.1211 7.27757 63.2537 6.41016 62.1875 6.41016C61.1213 6.41016 60.2539 7.27757 60.2539 8.34375C60.2539 9.40993 61.1213 10.2773 62.1875 10.2773ZM62.1875 7.46484C62.6721 7.46484 63.0664 7.85912 63.0664 8.34375C63.0664 8.82838 62.6721 9.22266 62.1875 9.22266C61.7029 9.22266 61.3086 8.82838 61.3086 8.34375C61.3086 7.85912 61.7029 7.46484 62.1875 7.46484Z" fill="#878787"/>
    <path d="M62.6129 11.4727H61.7973C60.8361 11.4727 60.0064 12.0405 59.6284 12.8561C58.85 12.0064 57.7319 11.4727 56.4915 11.4727H55.5086C54.2681 11.4727 53.1501 12.0064 52.3717 12.8561C51.9936 12.0405 51.1639 11.4727 50.2027 11.4727H49.3871C48.0709 11.4727 47 12.537 47 13.8454V17.6848C47 18.2528 47.4639 18.7148 48.034 18.7148H51.2588C51.3129 19.3441 51.842 19.8398 52.4851 19.8398H59.5149C60.158 19.8398 60.6871 19.3441 60.7412 18.7148H63.9292C64.5197 18.7148 65 18.2364 65 17.6482V13.8454C65 12.537 63.9291 11.4727 62.6129 11.4727ZM48.0547 13.8454C48.0547 13.1186 48.6524 12.5273 49.3871 12.5273H50.2027C50.9374 12.5273 51.5352 13.1186 51.5352 13.8454V14.2064C51.1805 15.1298 51.2539 15.6831 51.2539 17.6602H48.0547V13.8454ZM59.6914 18.6086C59.6914 18.706 59.6122 18.7852 59.5149 18.7852H52.4851C52.3878 18.7852 52.3086 18.7059 52.3086 18.6086V15.7273C52.3086 13.9628 53.7441 12.5273 55.5085 12.5273H56.4914C58.2559 12.5273 59.6914 13.9628 59.6914 15.7273V18.6086ZM63.9453 17.6482C63.9453 17.6664 64.1419 17.6602 60.7461 17.6602C60.7461 15.6685 60.8189 15.1283 60.4648 14.2064V13.8454C60.4648 13.1186 61.0626 12.5273 61.7973 12.5273H62.6129C63.3476 12.5273 63.9453 13.1186 63.9453 13.8454V17.6482Z" fill="#878787"/>
    <path d="M49.8125 10.2773C50.8787 10.2773 51.7461 9.40993 51.7461 8.34375C51.7461 7.27757 50.8787 6.41016 49.8125 6.41016C48.7463 6.41016 47.8789 7.27757 47.8789 8.34375C47.8789 9.40993 48.7463 10.2773 49.8125 10.2773ZM49.8125 7.46484C50.2971 7.46484 50.6914 7.85912 50.6914 8.34375C50.6914 8.82838 50.2971 9.22266 49.8125 9.22266C49.3279 9.22266 48.9336 8.82838 48.9336 8.34375C48.9336 7.85912 49.3279 7.46484 49.8125 7.46484Z" fill="#878787"/>
    <path d="M87.4796 6.53952H74.5205C73.7252 6.53952 73.0806 7.18418 73.0806 7.97942V16.6188C73.0806 17.4141 73.7252 18.0587 74.5205 18.0587H87.4796C88.2748 18.0587 88.9195 17.4141 88.9195 16.6188V7.97942C88.9195 7.18418 88.2748 6.53952 87.4796 6.53952Z" stroke="#878787" stroke-width="1.5" stroke-linecap="round" stroke-linejoin="round"/>
    <path d="M73.0806 10.8592H88.9195" stroke="#878787" stroke-width="1.5" stroke-linecap="round" stroke-linejoin="round"/>
    <path d="M112.271 10.2991L111.134 10.1057C111.016 9.72447 110.863 9.355 110.677 9.00211L111.347 8.06453C111.485 7.87187 111.55 7.63633 111.53 7.40013C111.511 7.16395 111.407 6.94255 111.239 6.77562L110.227 5.76312C110.134 5.66945 110.023 5.59516 109.902 5.54458C109.78 5.494 109.65 5.46813 109.518 5.46849C109.31 5.46779 109.107 5.53301 108.939 5.65479L107.998 6.32506C107.633 6.13128 107.25 5.97359 106.854 5.85425L106.67 4.73645C106.631 4.50227 106.511 4.28943 106.33 4.13601C106.148 3.98259 105.919 3.89862 105.681 3.89911H104.257C104.02 3.89862 103.79 3.98259 103.609 4.13601C103.428 4.28943 103.307 4.50227 103.269 4.73645L103.076 5.88665C102.696 6.00587 102.328 6.16115 101.977 6.35037L101.046 5.6801C100.853 5.54244 100.618 5.47777 100.382 5.49761C100.146 5.51746 99.9244 5.62053 99.7573 5.78844L98.7448 6.80094C98.5772 6.96828 98.4744 7.18959 98.4546 7.42555C98.4347 7.66152 98.4992 7.89689 98.6364 8.08985L99.3128 9.04058C99.1277 9.39429 98.9768 9.76486 98.8622 10.1472L97.7383 10.3366C97.5045 10.3747 97.2918 10.4948 97.1383 10.6752C96.9847 10.8557 96.9003 11.0848 96.9 11.3217V12.7464C96.8995 12.9835 96.9833 13.2131 97.1365 13.3942C97.2897 13.5752 97.5023 13.6959 97.7363 13.7346L98.8865 13.9309C99.0057 14.3114 99.161 14.6796 99.3502 15.0306L98.684 15.958C98.546 16.1507 98.4811 16.3862 98.5009 16.6224C98.5208 16.8585 98.6241 17.0799 98.7924 17.2469L99.8049 18.2594C99.8975 18.3531 100.008 18.4273 100.13 18.4779C100.251 18.5285 100.382 18.5544 100.514 18.5541C100.722 18.5547 100.924 18.4895 101.093 18.3678L102.043 17.6914C102.386 17.8701 102.744 18.0176 103.113 18.1318L103.302 19.2688C103.342 19.5007 103.462 19.7111 103.642 19.8629C103.821 20.0148 104.049 20.0985 104.284 20.0991H105.709C105.946 20.0996 106.176 20.0158 106.357 19.8626C106.538 19.7094 106.658 19.4968 106.697 19.2628L106.89 18.1257C107.272 18.0081 107.641 17.8553 107.994 17.6691L108.932 18.3394C109.101 18.4612 109.305 18.5263 109.514 18.5257C109.646 18.5261 109.776 18.5001 109.898 18.4496C110.019 18.399 110.13 18.3247 110.222 18.231L111.235 17.2185C111.403 17.0512 111.505 16.8299 111.525 16.5939C111.545 16.358 111.481 16.1226 111.343 15.9297L110.673 14.989C110.859 14.6363 111.012 14.2667 111.13 13.8854L112.267 13.696C112.5 13.6567 112.712 13.5358 112.865 13.3548C113.017 13.1739 113.101 12.9446 113.1 12.7078V11.2904C113.104 11.0531 113.022 10.8222 112.87 10.6402C112.718 10.4581 112.505 10.3371 112.271 10.2991ZM112.189 12.7078C112.189 12.7291 112.182 12.7497 112.168 12.7659C112.154 12.7821 112.135 12.7928 112.114 12.7959L110.696 13.0328C110.61 13.0473 110.529 13.0867 110.464 13.1462C110.399 13.2057 110.353 13.2828 110.331 13.368C110.203 13.866 110.004 14.3434 109.742 14.7855C109.697 14.8615 109.675 14.9488 109.678 15.037C109.682 15.1252 109.711 15.2106 109.762 15.2826L110.598 16.4602C110.61 16.4777 110.615 16.4986 110.613 16.5197C110.612 16.5407 110.603 16.5605 110.588 16.5756L109.576 17.5881C109.567 17.597 109.557 17.604 109.546 17.6087C109.535 17.6134 109.523 17.6157 109.511 17.6154C109.492 17.6154 109.475 17.6094 109.46 17.5983L108.286 16.7619C108.213 16.7109 108.128 16.6819 108.04 16.6783C107.952 16.6748 107.864 16.6967 107.788 16.7416C107.346 17.0043 106.869 17.2028 106.371 17.331C106.285 17.3523 106.208 17.3983 106.148 17.4633C106.089 17.5283 106.05 17.6093 106.036 17.6964L105.796 19.1139C105.793 19.1349 105.782 19.1541 105.766 19.1679C105.75 19.1816 105.729 19.1891 105.708 19.1888H104.291C104.27 19.1891 104.249 19.1816 104.233 19.1679C104.217 19.1541 104.206 19.1349 104.203 19.1139L103.966 17.6964C103.952 17.6096 103.912 17.5289 103.853 17.464C103.793 17.3991 103.716 17.3528 103.631 17.331C103.145 17.204 102.679 17.0126 102.244 16.7619C102.174 16.7223 102.095 16.7013 102.014 16.7011C101.919 16.7006 101.827 16.7305 101.75 16.7862L100.565 17.6286C100.55 17.6388 100.533 17.6447 100.515 17.6458C100.503 17.6458 100.491 17.6433 100.479 17.6387C100.468 17.634 100.458 17.6271 100.45 17.6185L99.4373 16.606C99.4227 16.5908 99.4137 16.5711 99.4118 16.55C99.41 16.5291 99.4154 16.5081 99.4272 16.4905L100.259 15.3231C100.311 15.2503 100.34 15.1644 100.343 15.0756C100.347 14.9866 100.325 14.8986 100.28 14.8219C100.014 14.3805 99.8138 13.9031 99.6844 13.4044C99.6614 13.3197 99.6149 13.2432 99.5502 13.1839C99.4855 13.1246 99.4053 13.0848 99.3189 13.0693L97.8882 12.8344C97.8668 12.8317 97.8472 12.8212 97.833 12.805C97.8188 12.7887 97.8111 12.7679 97.8112 12.7464V11.3217C97.811 11.3005 97.8185 11.2799 97.8322 11.2637C97.846 11.2475 97.8652 11.2368 97.8862 11.2337L99.2996 10.9967C99.3872 10.9822 99.4687 10.9425 99.5342 10.8824C99.5996 10.8224 99.6462 10.7446 99.6682 10.6586C99.7931 10.161 99.9881 9.68372 100.247 9.24106C100.292 9.16537 100.313 9.0783 100.309 8.99054C100.305 8.90277 100.276 8.81813 100.224 8.74696L99.3806 7.55828C99.3688 7.54079 99.3634 7.51979 99.3653 7.49878C99.3671 7.47778 99.3761 7.45804 99.3907 7.44286L100.403 6.43036C100.412 6.4215 100.422 6.41448 100.433 6.40977C100.444 6.40506 100.456 6.40276 100.468 6.40302C100.486 6.40302 100.504 6.40907 100.519 6.42024L101.686 7.25251C101.759 7.30359 101.845 7.33266 101.934 7.33625C102.023 7.33984 102.111 7.3178 102.187 7.27276C102.629 7.0073 103.106 6.8068 103.605 6.67741C103.69 6.65446 103.766 6.60792 103.825 6.54322C103.885 6.47851 103.924 6.3983 103.94 6.3119L104.176 4.88529C104.179 4.86427 104.19 4.84511 104.206 4.83134C104.222 4.81757 104.243 4.81012 104.264 4.81036H105.688C105.71 4.81012 105.73 4.81757 105.747 4.83134C105.763 4.84511 105.773 4.86427 105.777 4.88529L106.012 6.2957C106.027 6.38332 106.067 6.46482 106.127 6.53026C106.187 6.5957 106.265 6.64226 106.351 6.66425C106.861 6.79218 107.35 6.99268 107.803 7.2596C107.879 7.30453 107.966 7.32653 108.054 7.32293C108.142 7.31934 108.228 7.29031 108.3 7.23935L109.467 6.39999C109.482 6.38981 109.5 6.38387 109.518 6.38277C109.53 6.38281 109.542 6.38525 109.553 6.38994C109.564 6.39463 109.574 6.40148 109.583 6.41011L110.595 7.42261C110.61 7.43779 110.619 7.45753 110.621 7.47853C110.622 7.49954 110.617 7.52054 110.605 7.53803L109.769 8.71253C109.718 8.78462 109.689 8.8699 109.685 8.95811C109.682 9.04632 109.704 9.13369 109.749 9.20967C110.011 9.65181 110.21 10.1291 110.338 10.6272C110.359 10.7127 110.405 10.7901 110.47 10.8497C110.535 10.9093 110.616 10.9484 110.703 10.9623L112.121 11.2023C112.142 11.2055 112.161 11.2161 112.175 11.2323C112.189 11.2485 112.196 11.2691 112.196 11.2904V12.7078H112.189Z" fill="#878787" stroke="#878787" stroke-width="0.2"/>
    <path d="M105.002 8.50195C104.311 8.50195 103.635 8.707 103.06 9.09117C102.485 9.47533 102.037 10.0213 101.772 10.6602C101.507 11.299 101.438 12.002 101.573 12.6802C101.708 13.3584 102.041 13.9813 102.53 14.4703C103.019 14.9592 103.642 15.2922 104.32 15.4271C104.998 15.562 105.701 15.4928 106.34 15.2281C106.979 14.9635 107.525 14.5154 107.909 13.9405C108.293 13.3656 108.498 12.6896 108.498 11.9981C108.498 11.071 108.129 10.1821 107.474 9.52655C106.818 8.87101 105.929 8.50248 105.002 8.50195ZM105.002 14.577C104.491 14.577 103.992 14.4256 103.568 14.1418C103.143 13.8581 102.812 13.4549 102.617 12.9831C102.421 12.5114 102.37 11.9922 102.47 11.4914C102.569 10.9905 102.815 10.5305 103.176 10.1694C103.538 9.80834 103.998 9.56244 104.498 9.46282C104.999 9.3632 105.518 9.41431 105.99 9.60973C106.462 9.80514 106.865 10.1361 107.149 10.5607C107.433 10.9853 107.584 11.4844 107.584 11.9951C107.583 12.6797 107.311 13.336 106.827 13.8201C106.343 14.3043 105.687 14.5764 105.002 14.577Z" fill="#878787" stroke="#878787" stroke-width="0.2"/>
    <path d="M9.93745 32.0001H4.31245C3.58873 32.0001 3 31.4113 3 30.6874V27.3125C3 26.5887 3.58873 26 4.31245 26H9.93745C10.6613 26 11.25 26.5887 11.25 27.3125V30.6874C11.25 31.4113 10.6613 32.0001 9.93745 32.0001ZM4.31245 27.125C4.20905 27.125 4.125 27.2091 4.125 27.3125V30.6874C4.125 30.791 4.20905 30.8751 4.31245 30.8751H9.93745C10.041 30.8751 10.1251 30.791 10.1251 30.6874V27.3125C10.1251 27.2091 10.041 27.125 9.93745 27.125H4.31245Z" fill="#2D9CDB"/>
    <path d="M9.93745 44H4.31245C3.58873 44 3 43.4113 3 42.6875V34.8125C3 34.0887 3.58873 33.4999 4.31245 33.4999H9.93745C10.6613 33.4999 11.25 34.0887 11.25 34.8125V42.6875C11.25 43.4113 10.6613 44 9.93745 44ZM4.31245 34.6249C4.20905 34.6249 4.125 34.709 4.125 34.8125V42.6875C4.125 42.791 4.20905 42.875 4.31245 42.875H9.93745C10.041 42.875 10.1251 42.791 10.1251 42.6875V34.8125C10.1251 34.709 10.041 34.6249 9.93745 34.6249H4.31245Z" fill="#2D9CDB"/>
    <path d="M19.1877 44H13.5627C12.8388 44 12.2501 43.4113 12.2501 42.6875V39.3125C12.2501 38.5887 12.8388 38 13.5627 38H19.1877C19.9114 38 20.5001 38.5887 20.5001 39.3125V42.6875C20.5001 43.4113 19.9114 44 19.1877 44ZM13.5627 39.125C13.4591 39.125 13.3751 39.209 13.3751 39.3125V42.6875C13.3751 42.791 13.4591 42.875 13.5627 42.875H19.1877C19.2911 42.875 19.3751 42.791 19.3751 42.6875V39.3125C19.3751 39.209 19.2911 39.125 19.1877 39.125H13.5627Z" fill="#2D9CDB"/>
    <path d="M19.1877 36.5H13.5627C12.8388 36.5 12.2501 35.9113 12.2501 35.1875V27.3125C12.2501 26.5887 12.8388 26 13.5627 26H19.1877C19.9114 26 20.5001 26.5887 20.5001 27.3125V35.1875C20.5001 35.9113 19.9114 36.5 19.1877 36.5ZM13.5627 27.125C13.4591 27.125 13.3751 27.2091 13.3751 27.3125V35.1875C13.3751 35.291 13.4591 35.375 13.5627 35.375H19.1877C19.2911 35.375 19.3751 35.291 19.3751 35.1875V27.3125C19.3751 27.2091 19.2911 27.125 19.1877 27.125H13.5627Z" fill="#2D9CDB"/>
    <path d="M40.75 33.5C40.75 38.75 34 43.25 34 43.25C34 43.25 27.25 38.75 27.25 33.5C27.25 31.7098 27.9612 29.9929 29.227 28.727C30.4929 27.4612 32.2098 26.75 34 26.75C35.7902 26.75 37.5071 27.4612 38.773 28.727C40.0388 29.9929 40.75 31.7098 40.75 33.5Z" stroke="#2D9CDB" stroke-width="1.5" stroke-linecap="round" stroke-linejoin="round"/>
    <path d="M34 35.75C35.2426 35.75 36.25 34.7426 36.25 33.5C36.25 32.2574 35.2426 31.25 34 31.25C32.7574 31.25 31.75 32.2574 31.75 33.5C31.75 34.7426 32.7574 35.75 34 35.75Z" stroke="#2D9CDB" stroke-width="1.5" stroke-linecap="round" stroke-linejoin="round"/>
    <path d="M56 33.2773C57.6865 33.2773 59.0586 31.9053 59.0586 30.2187C59.0586 28.5322 57.6865 27.1602 56 27.1602C54.3135 27.1602 52.9414 28.5322 52.9414 30.2187C52.9414 31.9053 54.3135 33.2773 56 33.2773ZM56 28.2148C57.105 28.2148 58.0039 29.1138 58.0039 30.2187C58.0039 31.3237 57.105 32.2227 56 32.2227C54.895 32.2227 53.9961 31.3237 53.9961 30.2187C53.9961 29.1138 54.895 28.2148 56 28.2148Z" fill="#2D9CDB"/>
    <path d="M62.1875 33.2773C63.2537 33.2773 64.1211 32.4099 64.1211 31.3437C64.1211 30.2776 63.2537 29.4102 62.1875 29.4102C61.1213 29.4102 60.2539 30.2776 60.2539 31.3437C60.2539 32.4099 61.1213 33.2773 62.1875 33.2773ZM62.1875 30.4648C62.6721 30.4648 63.0664 30.8591 63.0664 31.3437C63.0664 31.8284 62.6721 32.2227 62.1875 32.2227C61.7029 32.2227 61.3086 31.8284 61.3086 31.3437C61.3086 30.8591 61.7029 30.4648 62.1875 30.4648Z" fill="#2D9CDB"/>
    <path d="M62.6129 34.4727H61.7973C60.8361 34.4727 60.0064 35.0405 59.6284 35.8561C58.85 35.0064 57.7319 34.4727 56.4915 34.4727H55.5086C54.2681 34.4727 53.1501 35.0064 52.3717 35.8561C51.9936 35.0405 51.1639 34.4727 50.2027 34.4727H49.3871C48.0709 34.4727 47 35.537 47 36.8454V40.6848C47 41.2528 47.4639 41.7148 48.034 41.7148H51.2588C51.3129 42.3441 51.842 42.8398 52.4851 42.8398H59.5149C60.158 42.8398 60.6871 42.3441 60.7412 41.7148H63.9292C64.5197 41.7148 65 41.2364 65 40.6482V36.8454C65 35.537 63.9291 34.4727 62.6129 34.4727ZM48.0547 36.8454C48.0547 36.1186 48.6524 35.5273 49.3871 35.5273H50.2027C50.9374 35.5273 51.5352 36.1186 51.5352 36.8454V37.2064C51.1805 38.1298 51.2539 38.6831 51.2539 40.6602H48.0547V36.8454ZM59.6914 41.6086C59.6914 41.706 59.6122 41.7852 59.5149 41.7852H52.4851C52.3878 41.7852 52.3086 41.7059 52.3086 41.6086V38.7273C52.3086 36.9628 53.7441 35.5273 55.5085 35.5273H56.4914C58.2559 35.5273 59.6914 36.9628 59.6914 38.7273V41.6086ZM63.9453 40.6482C63.9453 40.6664 64.1419 40.6602 60.7461 40.6602C60.7461 38.6685 60.8189 38.1283 60.4648 37.2064V36.8454C60.4648 36.1186 61.0626 35.5273 61.7973 35.5273H62.6129C63.3476 35.5273 63.9453 36.1186 63.9453 36.8454V40.6482Z" fill="#2D9CDB"/>
    <path d="M49.8125 33.2773C50.8787 33.2773 51.7461 32.4099 51.7461 31.3437C51.7461 30.2776 50.8787 29.4102 49.8125 29.4102C48.7463 29.4102 47.8789 30.2776 47.8789 31.3437C47.8789 32.4099 48.7463 33.2773 49.8125 33.2773ZM49.8125 30.4648C50.2971 30.4648 50.6914 30.8591 50.6914 31.3437C50.6914 31.8284 50.2971 32.2227 49.8125 32.2227C49.3279 32.2227 48.9336 31.8284 48.9336 31.3437C48.9336 30.8591 49.3279 30.4648 49.8125 30.4648Z" fill="#2D9CDB"/>
    <path d="M87.4796 29.5395H74.5205C73.7252 29.5395 73.0806 30.1842 73.0806 30.9794V39.6188C73.0806 40.4141 73.7252 41.0587 74.5205 41.0587H87.4796C88.2748 41.0587 88.9195 40.4141 88.9195 39.6188V30.9794C88.9195 30.1842 88.2748 29.5395 87.4796 29.5395Z" stroke="#2D9CDB" stroke-width="1.5" stroke-linecap="round" stroke-linejoin="round"/>
    <path d="M73.0806 33.8592H88.9195" stroke="#2D9CDB" stroke-width="1.5" stroke-linecap="round" stroke-linejoin="round"/>
    <path d="M112.271 33.2991L111.134 33.1057C111.016 32.7245 110.863 32.355 110.677 32.0021L111.347 31.0645C111.485 30.8719 111.55 30.6363 111.53 30.4001C111.511 30.1639 111.407 29.9425 111.239 29.7756L110.227 28.7631C110.134 28.6695 110.023 28.5952 109.902 28.5446C109.78 28.494 109.65 28.4681 109.518 28.4685C109.31 28.4678 109.107 28.533 108.939 28.6548L107.998 29.3251C107.633 29.1313 107.25 28.9736 106.854 28.8542L106.67 27.7364C106.631 27.5023 106.511 27.2894 106.33 27.136C106.148 26.9826 105.919 26.8986 105.681 26.8991H104.257C104.02 26.8986 103.79 26.9826 103.609 27.136C103.428 27.2894 103.307 27.5023 103.269 27.7364L103.076 28.8866C102.696 29.0059 102.328 29.1611 101.977 29.3504L101.046 28.6801C100.853 28.5424 100.618 28.4778 100.382 28.4976C100.146 28.5175 99.9244 28.6205 99.7573 28.7884L98.7448 29.8009C98.5772 29.9683 98.4744 30.1896 98.4546 30.4255C98.4347 30.6615 98.4992 30.8969 98.6364 31.0898L99.3128 32.0406C99.1277 32.3943 98.9768 32.7649 98.8622 33.1472L97.7383 33.3366C97.5045 33.3747 97.2918 33.4948 97.1383 33.6752C96.9847 33.8557 96.9003 34.0848 96.9 34.3217V35.7464C96.8995 35.9835 96.9833 36.2131 97.1365 36.3942C97.2897 36.5752 97.5023 36.6959 97.7363 36.7346L98.8865 36.9309C99.0057 37.3114 99.161 37.6796 99.3502 38.0306L98.684 38.958C98.546 39.1507 98.4811 39.3862 98.5009 39.6224C98.5208 39.8585 98.6241 40.0799 98.7924 40.2469L99.8049 41.2594C99.8975 41.3531 100.008 41.4273 100.13 41.4779C100.251 41.5285 100.382 41.5544 100.514 41.5541C100.722 41.5547 100.924 41.4895 101.093 41.3678L102.043 40.6914C102.386 40.8701 102.744 41.0176 103.113 41.1318L103.302 42.2688C103.342 42.5007 103.462 42.7111 103.642 42.8629C103.821 43.0148 104.049 43.0985 104.284 43.0991H105.709C105.946 43.0996 106.176 43.0158 106.357 42.8626C106.538 42.7094 106.658 42.4968 106.697 42.2628L106.89 41.1257C107.272 41.0081 107.641 40.8553 107.994 40.6691L108.932 41.3394C109.101 41.4612 109.305 41.5263 109.514 41.5257C109.646 41.5261 109.776 41.5001 109.898 41.4496C110.019 41.399 110.13 41.3247 110.222 41.231L111.235 40.2185C111.403 40.0512 111.505 39.8299 111.525 39.5939C111.545 39.358 111.481 39.1226 111.343 38.9297L110.673 37.989C110.859 37.6363 111.012 37.2667 111.13 36.8854L112.267 36.696C112.5 36.6567 112.712 36.5358 112.865 36.3548C113.017 36.1739 113.101 35.9446 113.1 35.7078V34.2904C113.104 34.0531 113.022 33.8222 112.87 33.6402C112.718 33.4581 112.505 33.3371 112.271 33.2991ZM112.189 35.7078C112.189 35.7291 112.182 35.7497 112.168 35.7659C112.154 35.7821 112.135 35.7928 112.114 35.7959L110.696 36.0328C110.61 36.0473 110.529 36.0867 110.464 36.1462C110.399 36.2057 110.353 36.2828 110.331 36.368C110.203 36.866 110.004 37.3434 109.742 37.7855C109.697 37.8615 109.675 37.9488 109.678 38.037C109.682 38.1252 109.711 38.2106 109.762 38.2826L110.598 39.4602C110.61 39.4777 110.615 39.4986 110.613 39.5197C110.612 39.5407 110.603 39.5605 110.588 39.5756L109.576 40.5881C109.567 40.597 109.557 40.604 109.546 40.6087C109.535 40.6134 109.523 40.6157 109.511 40.6154C109.492 40.6154 109.475 40.6094 109.46 40.5983L108.286 39.7619C108.213 39.7109 108.128 39.6819 108.04 39.6783C107.952 39.6748 107.864 39.6967 107.788 39.7416C107.346 40.0043 106.869 40.2028 106.371 40.331C106.285 40.3523 106.208 40.3983 106.148 40.4633C106.089 40.5283 106.05 40.6093 106.036 40.6964L105.796 42.1139C105.793 42.1349 105.782 42.1541 105.766 42.1679C105.75 42.1816 105.729 42.1891 105.708 42.1888H104.291C104.27 42.1891 104.249 42.1816 104.233 42.1679C104.217 42.1541 104.206 42.1349 104.203 42.1139L103.966 40.6964C103.952 40.6096 103.912 40.5289 103.853 40.464C103.793 40.3991 103.716 40.3528 103.631 40.331C103.145 40.204 102.679 40.0126 102.244 39.7619C102.174 39.7223 102.095 39.7013 102.014 39.7011C101.919 39.7006 101.827 39.7305 101.75 39.7862L100.565 40.6286C100.55 40.6388 100.533 40.6447 100.515 40.6458C100.503 40.6458 100.491 40.6433 100.479 40.6387C100.468 40.634 100.458 40.6271 100.45 40.6185L99.4373 39.606C99.4227 39.5908 99.4137 39.5711 99.4118 39.55C99.41 39.5291 99.4154 39.5081 99.4272 39.4905L100.259 38.3231C100.311 38.2503 100.34 38.1644 100.343 38.0756C100.347 37.9866 100.325 37.8986 100.28 37.8219C100.014 37.3805 99.8138 36.9031 99.6844 36.4044C99.6614 36.3197 99.6149 36.2432 99.5502 36.1839C99.4855 36.1246 99.4053 36.0848 99.3189 36.0693L97.8882 35.8344C97.8668 35.8317 97.8472 35.8212 97.833 35.805C97.8188 35.7887 97.8111 35.7679 97.8112 35.7464V34.3217C97.811 34.3005 97.8185 34.2799 97.8322 34.2637C97.846 34.2475 97.8652 34.2368 97.8862 34.2337L99.2996 33.9967C99.3872 33.9822 99.4687 33.9425 99.5342 33.8824C99.5996 33.8224 99.6462 33.7446 99.6682 33.6586C99.7931 33.161 99.9881 32.6837 100.247 32.2411C100.292 32.1654 100.313 32.0783 100.309 31.9905C100.305 31.9028 100.276 31.8181 100.224 31.747L99.3806 30.5583C99.3688 30.5408 99.3634 30.5198 99.3653 30.4988C99.3671 30.4778 99.3761 30.458 99.3907 30.4429L100.403 29.4304C100.412 29.4215 100.422 29.4145 100.433 29.4098C100.444 29.4051 100.456 29.4028 100.468 29.403C100.486 29.403 100.504 29.4091 100.519 29.4202L101.686 30.2525C101.759 30.3036 101.845 30.3327 101.934 30.3363C102.023 30.3398 102.111 30.3178 102.187 30.2728C102.629 30.0073 103.106 29.8068 103.605 29.6774C103.69 29.6545 103.766 29.6079 103.825 29.5432C103.885 29.4785 103.924 29.3983 103.94 29.3119L104.176 27.8853C104.179 27.8643 104.19 27.8451 104.206 27.8313C104.222 27.8176 104.243 27.8101 104.264 27.8104H105.688C105.71 27.8101 105.73 27.8176 105.747 27.8313C105.763 27.8451 105.773 27.8643 105.777 27.8853L106.012 29.2957C106.027 29.3833 106.067 29.4648 106.127 29.5303C106.187 29.5957 106.265 29.6423 106.351 29.6642C106.861 29.7922 107.35 29.9927 107.803 30.2596C107.879 30.3045 107.966 30.3265 108.054 30.3229C108.142 30.3193 108.228 30.2903 108.3 30.2393L109.467 29.4C109.482 29.3898 109.5 29.3839 109.518 29.3828C109.53 29.3828 109.542 29.3852 109.553 29.3899C109.564 29.3946 109.574 29.4015 109.583 29.4101L110.595 30.4226C110.61 30.4378 110.619 30.4575 110.621 30.4785C110.622 30.4995 110.617 30.5205 110.605 30.538L109.769 31.7125C109.718 31.7846 109.689 31.8699 109.685 31.9581C109.682 32.0463 109.704 32.1337 109.749 32.2097C110.011 32.6518 110.21 33.1291 110.338 33.6272C110.359 33.7127 110.405 33.7901 110.47 33.8497C110.535 33.9093 110.616 33.9484 110.703 33.9623L112.121 34.2023C112.142 34.2055 112.161 34.2161 112.175 34.2323C112.189 34.2485 112.196 34.2691 112.196 34.2904V35.7078H112.189Z" fill="#2D9CDB" stroke="#2D9CDB" stroke-width="0.2"/>
    <path d="M105.002 31.502C104.311 31.502 103.635 31.707 103.06 32.0912C102.485 32.4753 102.037 33.0213 101.772 33.6602C101.507 34.299 101.438 35.002 101.573 35.6802C101.708 36.3584 102.041 36.9813 102.53 37.4703C103.019 37.9592 103.642 38.2922 104.32 38.4271C104.998 38.562 105.701 38.4928 106.34 38.2281C106.979 37.9635 107.525 37.5154 107.909 36.9405C108.293 36.3656 108.498 35.6896 108.498 34.9981C108.498 34.071 108.129 33.1821 107.474 32.5265C106.818 31.871 105.929 31.5025 105.002 31.502ZM105.002 37.577C104.491 37.577 103.992 37.4256 103.568 37.1418C103.143 36.8581 102.812 36.4549 102.617 35.9831C102.421 35.5114 102.37 34.9922 102.47 34.4914C102.569 33.9905 102.815 33.5305 103.176 33.1694C103.538 32.8083 103.998 32.5624 104.498 32.4628C104.999 32.3632 105.518 32.4143 105.99 32.6097C106.462 32.8051 106.865 33.1361 107.149 33.5607C107.433 33.9853 107.584 34.4844 107.584 34.9951C107.583 35.6797 107.311 36.336 106.827 36.8201C106.343 37.3043 105.687 37.5764 105.002 37.577Z" fill="#2D9CDB" stroke="#2D9CDB" stroke-width="0.2"/>
    <path d="M153.81 15.8116L151.082 13.1505C151.021 13.0911 150.948 13.0441 150.868 13.0121C150.789 12.9801 150.703 12.9638 150.617 12.964H150.17C151.061 11.8502 151.483 10.4466 151.35 9.03967C151.217 7.63269 150.539 6.32822 149.454 5.39224C148.37 4.45627 146.96 3.95928 145.513 4.00261C144.065 4.04595 142.69 4.62635 141.666 5.62546C140.642 6.62457 140.047 7.96715 140.003 9.37944C139.958 10.7917 140.468 12.1674 141.427 13.2259C142.386 14.2843 143.723 14.9459 145.165 15.0758C146.606 15.2056 148.045 14.7939 149.186 13.9246V14.36C149.186 14.4442 149.203 14.5276 149.235 14.6055C149.268 14.6834 149.316 14.7542 149.377 14.8139L152.104 17.475C152.165 17.5346 152.237 17.5819 152.317 17.6141C152.396 17.6464 152.482 17.663 152.568 17.663C152.654 17.663 152.739 17.6464 152.819 17.6141C152.899 17.5819 152.971 17.5346 153.032 17.475L153.806 16.7194C153.929 16.5994 153.999 16.4364 154 16.2663C154.001 16.0962 153.932 15.9326 153.81 15.8116ZM145.685 12.9631C144.992 12.9631 144.315 12.7627 143.74 12.3873C143.164 12.0118 142.715 11.4782 142.45 10.8539C142.185 10.2296 142.116 9.54262 142.251 8.87985C142.386 8.21708 142.719 7.60829 143.209 7.13046C143.699 6.65263 144.323 6.32722 145.002 6.19539C145.681 6.06356 146.385 6.13122 147.025 6.38982C147.665 6.64842 148.211 7.08634 148.596 7.64821C148.981 8.21008 149.186 8.87065 149.186 9.54641C149.186 10.4526 148.817 11.3216 148.161 11.9623C147.504 12.6031 146.613 12.9631 145.685 12.9631Z" fill="#878787"/>
    <path d="M154.06 38.4026L151.332 35.7415C151.271 35.6821 151.198 35.6351 151.118 35.6031C151.039 35.5711 150.953 35.5548 150.867 35.5551H150.42C151.311 34.4412 151.733 33.0377 151.6 31.6307C151.467 30.2237 150.789 28.9192 149.704 27.9832C148.62 27.0473 147.21 26.5503 145.763 26.5936C144.315 26.637 142.94 27.2174 141.916 28.2165C140.892 29.2156 140.297 30.5582 140.253 31.9704C140.208 33.3827 140.718 34.7584 141.677 35.8169C142.636 36.8753 143.973 37.5369 145.415 37.6668C146.856 37.7966 148.295 37.3849 149.436 36.5156V36.951C149.436 37.0352 149.453 37.1186 149.485 37.1965C149.518 37.2744 149.566 37.3452 149.627 37.4049L152.354 40.066C152.415 40.1256 152.487 40.1729 152.567 40.2051C152.646 40.2374 152.732 40.254 152.818 40.254C152.904 40.254 152.989 40.2374 153.069 40.2051C153.149 40.1729 153.221 40.1256 153.282 40.066L154.056 39.3104C154.179 39.1904 154.249 39.0274 154.25 38.8573C154.251 38.6872 154.182 38.5236 154.06 38.4026ZM145.935 35.5541C145.242 35.5541 144.565 35.3537 143.99 34.9783C143.414 34.6028 142.965 34.0692 142.7 33.4449C142.435 32.8206 142.366 32.1336 142.501 31.4709C142.636 30.8081 142.969 30.1993 143.459 29.7215C143.949 29.2436 144.573 28.9182 145.252 28.7864C145.931 28.6546 146.635 28.7222 147.275 28.9808C147.915 29.2394 148.461 29.6773 148.846 30.2392C149.231 30.8011 149.436 31.4617 149.436 32.1374C149.436 33.0436 149.067 33.9126 148.411 34.5534C147.754 35.1941 146.863 35.5541 145.935 35.5541Z" fill="#2D9CDB"/>
    <path d="M167.5 27.591H162.25C161.852 27.591 161.471 27.749 161.189 28.0303C160.908 28.3116 160.75 28.6932 160.75 29.091V39.591C160.75 39.9888 160.908 40.3704 161.189 40.6517C161.471 40.933 161.852 41.091 162.25 41.091H172.75C173.148 41.091 173.529 40.933 173.811 40.6517C174.092 40.3704 174.25 39.9888 174.25 39.591V34.341" stroke="#2D9CDB" stroke-width="1.5" stroke-linecap="round" stroke-linejoin="round"/>
    <path d="M119.25 6.5H120.75H132.75" stroke="#585858" stroke-width="1.5" stroke-linecap="round" stroke-linejoin="round"/>
    <path d="M123 6.5V5C123 4.60218 123.158 4.22064 123.439 3.93934C123.721 3.65804 124.102 3.5 124.5 3.5H127.5C127.898 3.5 128.279 3.65804 128.561 3.93934C128.842 4.22064 129 4.60218 129 5V6.5H123ZM131.25 6.5V17C131.25 17.3978 131.092 17.7794 130.811 18.0607C130.529 18.342 130.148 18.5 129.75 18.5H122.25C121.852 18.5 121.471 18.342 121.189 18.0607C120.908 17.7794 120.75 17.3978 120.75 17V6.5H131.25Z" stroke="#585858" stroke-width="1.5" stroke-linecap="round" stroke-linejoin="round"/>
    <path d="M124.5 10.25V14.75" stroke="#585858" stroke-width="1.5" stroke-linecap="round" stroke-linejoin="round"/>
    <path d="M127.5 10.25V14.75" stroke="#585858" stroke-width="1.5" stroke-linecap="round" stroke-linejoin="round"/>
    <path d="M167.25 5H162C161.602 5 161.221 5.15804 160.939 5.43934C160.658 5.72064 160.5 6.10218 160.5 6.5V17C160.5 17.3978 160.658 17.7794 160.939 18.0607C161.221 18.342 161.602 18.5 162 18.5H172.5C172.898 18.5 173.279 18.342 173.561 18.0607C173.842 17.7794 174 17.3978 174 17V11.75" stroke="#585858" stroke-width="1.5" stroke-linecap="round" stroke-linejoin="round"/>
    <path d="M172.875 3.87499C173.173 3.57662 173.578 3.409 174 3.409C174.422 3.409 174.827 3.57662 175.125 3.87499C175.423 4.17336 175.591 4.57803 175.591 4.99999C175.591 5.42194 175.423 5.82662 175.125 6.12499L168 13.25L165 14L165.75 11L172.875 3.87499Z" stroke="#585858" stroke-width="1.5" stroke-linecap="round" stroke-linejoin="round"/>
    <path d="M120.25 29.5H121.75H133.75" stroke="#2D9CDB" stroke-width="1.5" stroke-linecap="round" stroke-linejoin="round"/>
    <path d="M124 29.5V28C124 27.6022 124.158 27.2206 124.439 26.9393C124.721 26.658 125.102 26.5 125.5 26.5H128.5C128.898 26.5 129.279 26.658 129.561 26.9393C129.842 27.2206 130 27.6022 130 28V29.5H124ZM132.25 29.5V40C132.25 40.3978 132.092 40.7794 131.811 41.0607C131.529 41.342 131.148 41.5 130.75 41.5H123.25C122.852 41.5 122.471 41.342 122.189 41.0607C121.908 40.7794 121.75 40.3978 121.75 40V29.5H132.25Z" stroke="#2D9CDB" stroke-width="1.5" stroke-linecap="round" stroke-linejoin="round"/>
    <path d="M125.5 33.25V37.75" stroke="#2D9CDB" stroke-width="1.5" stroke-linecap="round" stroke-linejoin="round"/>
    <path d="M128.5 33.25V37.75" stroke="#2D9CDB" stroke-width="1.5" stroke-linecap="round" stroke-linejoin="round"/>
    <path d="M12.75 55.0354H16.4167C16.9029 55.0354 17.3692 55.2286 17.713 55.5724C18.0568 55.9162 18.25 56.3825 18.25 56.8687V69.7021C18.25 70.1883 18.0568 70.6546 17.713 70.9984C17.3692 71.3422 16.9029 71.5354 16.4167 71.5354H12.75" stroke="#878787" stroke-width="2" stroke-linecap="round" stroke-linejoin="round"/>
    <path d="M8.16675 67.8687L12.7501 63.2854L8.16675 58.702" stroke="#878787" stroke-width="2" stroke-linecap="round" stroke-linejoin="round"/>
    <path d="M12.75 63.2854H1.75" stroke="#878787" stroke-width="2" stroke-linecap="round" stroke-linejoin="round"/>
    <path d="M12.75 80.0354H16.4167C16.9029 80.0354 17.3692 80.2286 17.713 80.5724C18.0568 80.9162 18.25 81.3825 18.25 81.8687V94.7021C18.25 95.1883 18.0568 95.6546 17.713 95.9984C17.3692 96.3422 16.9029 96.5354 16.4167 96.5354H12.75" stroke="#2D9CDB" stroke-width="2" stroke-linecap="round" stroke-linejoin="round"/>
    <path d="M8.16675 92.8687L12.7501 88.2854L8.16675 83.702" stroke="#2D9CDB" stroke-width="2" stroke-linecap="round" stroke-linejoin="round"/>
    <path d="M12.75 88.2854H1.75" stroke="#2D9CDB" stroke-width="2" stroke-linecap="round" stroke-linejoin="round"/>
    <path d="M31.4286 60.2222C29.7103 60.2222 28.3174 61.6151 28.3174 63.3333C28.3174 65.0516 29.7103 66.4445 31.4286 66.4445C33.1468 66.4445 34.5397 65.0516 34.5397 63.3333C34.5397 61.6151 33.1468 60.2222 31.4286 60.2222ZM31.4286 65.1746C30.4117 65.1746 29.5873 64.3502 29.5873 63.3333C29.5873 62.3165 30.4117 61.4921 31.4286 61.4921C32.4454 61.4921 33.2698 62.3165 33.2698 63.3333C33.2698 64.3502 32.4455 65.1746 31.4286 65.1746Z" fill="black"/>
    <path d="M51.0477 62.6984H36.6984C36.3478 62.6984 36.0635 62.9827 36.0635 63.3333C36.0635 63.684 36.3478 63.9683 36.6984 63.9683H51.0477C51.3983 63.9683 51.6826 63.684 51.6826 63.3333C51.6826 62.9827 51.3983 62.6984 51.0477 62.6984Z" fill="black"/>
    <path d="M31.4286 52C29.7103 52 28.3174 53.3929 28.3174 55.1111C28.3174 56.8293 29.7103 58.2222 31.4286 58.2222C33.1468 58.2222 34.5397 56.8293 34.5397 55.1111C34.5397 53.3929 33.1468 52 31.4286 52ZM31.4286 56.9524C30.4117 56.9524 29.5873 56.128 29.5873 55.1111C29.5873 54.0942 30.4117 53.2698 31.4286 53.2698C32.4454 53.2698 33.2698 54.0942 33.2698 55.1111C33.2698 56.128 32.4455 56.9524 31.4286 56.9524Z" fill="black"/>
    <path d="M36.6984 55.746H51.0477C51.3983 55.746 51.6826 55.4618 51.6826 55.1111C51.6826 54.7604 51.3983 54.4762 51.0477 54.4762H36.6984C36.3478 54.4762 36.0635 54.7604 36.0635 55.1111C36.0635 55.4618 36.3478 55.746 36.6984 55.746Z" fill="black"/>
    <path d="M31.4286 68.4445C29.7103 68.4445 28.3174 69.8373 28.3174 71.5556C28.3174 73.2738 29.7103 74.6667 31.4286 74.6667C33.1468 74.6667 34.5397 73.2738 34.5397 71.5556C34.5397 69.8373 33.1468 68.4445 31.4286 68.4445ZM33.2698 71.5556C33.2698 72.5725 32.4454 73.3968 31.4286 73.3968C30.4117 73.3968 29.5873 72.5725 29.5873 71.5556C29.5873 70.5387 30.4117 69.7143 31.4286 69.7143C32.4454 69.7143 33.2698 70.5387 33.2698 71.5556Z" fill="black"/>
    <path d="M51.0477 70.9207H36.6984C36.3478 70.9207 36.0635 71.2049 36.0635 71.5556C36.0635 71.9062 36.3478 72.1905 36.6984 72.1905H51.0477C51.3983 72.1905 51.6826 71.9062 51.6826 71.5556C51.6826 71.2049 51.3983 70.9207 51.0477 70.9207Z" fill="black"/>
    <path d="M31.4286 86.2222C29.7103 86.2222 28.3174 87.6151 28.3174 89.3333C28.3174 91.0516 29.7103 92.4445 31.4286 92.4445C33.1468 92.4445 34.5397 91.0516 34.5397 89.3333C34.5397 87.6151 33.1468 86.2222 31.4286 86.2222ZM31.4286 91.1746C30.4117 91.1746 29.5873 90.3502 29.5873 89.3333C29.5873 88.3165 30.4117 87.4921 31.4286 87.4921C32.4454 87.4921 33.2698 88.3165 33.2698 89.3333C33.2698 90.3502 32.4455 91.1746 31.4286 91.1746Z" fill="#2D9CDB"/>
    <path d="M51.0477 88.6984H36.6984C36.3478 88.6984 36.0635 88.9827 36.0635 89.3333C36.0635 89.684 36.3478 89.9683 36.6984 89.9683H51.0477C51.3983 89.9683 51.6826 89.684 51.6826 89.3333C51.6826 88.9827 51.3983 88.6984 51.0477 88.6984Z" fill="#2D9CDB"/>
    <path d="M31.4286 78C29.7103 78 28.3174 79.3929 28.3174 81.1111C28.3174 82.8293 29.7103 84.2222 31.4286 84.2222C33.1468 84.2222 34.5397 82.8293 34.5397 81.1111C34.5397 79.3929 33.1468 78 31.4286 78ZM31.4286 82.9524C30.4117 82.9524 29.5873 82.128 29.5873 81.1111C29.5873 80.0942 30.4117 79.2698 31.4286 79.2698C32.4454 79.2698 33.2698 80.0942 33.2698 81.1111C33.2698 82.128 32.4455 82.9524 31.4286 82.9524Z" fill="#2D9CDB"/>
    <path d="M36.6984 81.746H51.0477C51.3983 81.746 51.6826 81.4618 51.6826 81.1111C51.6826 80.7604 51.3983 80.4762 51.0477 80.4762H36.6984C36.3478 80.4762 36.0635 80.7604 36.0635 81.1111C36.0635 81.4618 36.3478 81.746 36.6984 81.746Z" fill="#2D9CDB"/>
    <path d="M31.4286 94.4445C29.7103 94.4445 28.3174 95.8373 28.3174 97.5556C28.3174 99.2738 29.7103 100.667 31.4286 100.667C33.1468 100.667 34.5397 99.2738 34.5397 97.5556C34.5397 95.8373 33.1468 94.4445 31.4286 94.4445ZM33.2698 97.5556C33.2698 98.5725 32.4454 99.3968 31.4286 99.3968C30.4117 99.3968 29.5873 98.5725 29.5873 97.5556C29.5873 96.5387 30.4117 95.7143 31.4286 95.7143C32.4454 95.7143 33.2698 96.5387 33.2698 97.5556Z" fill="#2D9CDB"/>
    <path d="M51.0477 96.9207H36.6984C36.3478 96.9207 36.0635 97.2049 36.0635 97.5556C36.0635 97.9062 36.3478 98.1905 36.6984 98.1905H51.0477C51.3983 98.1905 51.6826 97.9062 51.6826 97.5556C51.6826 97.2049 51.3983 96.9207 51.0477 96.9207Z" fill="#2D9CDB"/>
  </g>
  <defs>
    <clipPath id="clip0">
      <rect width="500" height="200" fill="white"/>
    </clipPath>
  </defs>
</svg>
